# xmcd
#
# Track frame offsets:
#	150
#	12752
#	28227
#	43432
#	57827
#	74320
#	90045
#	103797
#	121127
#	137647
#	161507
#	178835
#
# Disc length: 2551 seconds
#
# Revision: 2
# Processed by: cddbd v1.4PL0 Copyright (c) Steve Scherf et al.
# Submitted via: audiograbber 1.82.01
#
DISCID=9c09f50c
DTITLE=Various Artist - New Country Vol. 3 - Number 2
DYEAR=1996
DGENRE=Country
TTITLE0=Jesse Dayton - Kissing Abilene Goodbye
TTITLE1=Chely Wright - Alligator Purse
TTITLE2=Buddy Miller - My Love Will Follow You
TTITLE3=Highway 101 and Paulette Carlson Reunited - Where'd You Get Your Cheatin'
TTITLE3=From
TTITLE4=Philip Claypool - The Strenghtof A Woman
TTITLE5=David Olney - In Your Eyes
TTITLE6=Chesapeake - One Way Track
TTITLE7=Old 97's - Old 97's
TTITLE8=Stevie Ray Vaughan and Double Trouble - Pride And Joy
TTITLE9=Dan Baird - Cumberland River
TTITLE10=The Delevantes - Driving At Night
TTITLE11=Mandy Barnett - Now That's Alright With Me
EXTD=Por Alfred's Sound!
EXTT0=
EXTT1=
EXTT2=
EXTT3=
EXTT4=
EXTT5=
EXTT6=
EXTT7=
EXTT8=
EXTT9=
EXTT10=
EXTT11=
PLAYORDER=
